<?xml version="1.0" encoding="utf-8"?>
<!-- Generated by IcoMoon.io -->
<!DOCTYPE svg PUBLIC "-//W3C//DTD SVG 1.1//EN" "http://www.w3.org/Graphics/SVG/1.1/DTD/svg11.dtd">
<svg version="1.1" xmlns="http://www.w3.org/2000/svg" xmlns:xlink="http://www.w3.org/1999/xlink" width="368" height="32" viewBox="0 0 368 32">
<svg id="icon-complaints" width="32" height="32" viewBox="0 0 32 32" x="0" y="0">
<path fill="#9c9c9c" d="M30 1l-9 6h-13c-4.418 0-8 2.582-8 7 0 3.733 2.542 6.339 6 7 0.045 0.27 0 8 0 8 0 1.105 0.895 2 2 2h3c1.105 0 2-0.896 2-2v-8h8l9 6c1.105 0 2-0.895 2-2v-22c0-1.104-0.895-2-2-2zM11 28c0 0.552-0.448 1-1 1h-1c-0.552 0-1-0.448-1-1v-7c0 0 2.5 0 3 0v7zM16 19h-8c-1.988 0-6-0.582-6-5s3.946-5.066 6-5h8v10zM21 19h-3v-10h3c0 0 0 8.912 0 10zM30 25l-7-5v-12l7-5v22z"></path>
</svg>
<svg id="icon-dashboard" weidth="32" height="32" viewBox="0 0 32 32" x="48" y="0">
<path fill="#9c9c9c" d="M16 29.337l-13.867-6.393c0.048 0.029-1.227-0.547-2.133-1.065 0 0.773 0.194 2.19 0.915 2.572l13.576 6.103c1.2 0.566 1.717 0.566 3.017 0l13.576-6.103c0.671-0.312 0.916-1.781 0.916-2.572-0.873 0.437-2.109 1.060-2.133 1.065l-13.867 6.393zM16 2.7c0.1 0.117 0.074 0.024 0 0v0zM0.915 18.058l13.576 6.103c1.2 0.566 1.717 0.566 3.017 0l13.576-6.103c0.671-0.312 0.916-1.781 0.916-2.572-0.873 0.437-2.109 1.060-2.133 1.065l-13.867 6.393-13.867-6.393c0.048 0.029-1.227-0.547-2.133-1.065 0 0.773 0.194 2.19 0.915 2.572zM0.915 11.665l13.576 6.103c1.2 0.566 1.717 0.566 3.017 0l13.576-6.103c1-0.466 1.033-2.448 0-3.014l-13.576-7.168c-1.066-0.632-1.817-0.599-3.017 0l-13.576 7.168c-1.033 0.666-1.066 2.448 0 3.014zM16 2.7l13.867 7.458-13.867 5.844-13.867-5.844 13.867-7.458z"></path>
</svg>

<svg id="icon-payments" width="32" height="32" viewBox="0 0 32 32" x="96" y="0">
<path fill="#9c9c9c" d="M28 0h-24c-2.195 0-4 1.969-4 4.165v23.859c0 2.196 1.779 3.976 3.974 3.976h23.843c2.195 0 4.183-1.804 4.183-4v-24c0-2.196-1.805-4-4-4zM30 28c0 1.098-1.086 2.012-2.183 2.012h-23.843c-1.097 0-1.987-0.89-1.987-1.988v-23.859c0-1.098 0.916-2.165 2.013-2.165h24c1.097 0 2 0.902 2 2v24zM24 20h-16c-0.552 0-1 0.448-1 1s0.448 1 1 1h16c0.552 0 1-0.448 1-1s-0.448-1-1-1zM24 14h-16c-0.552 0-1 0.448-1 1s0.448 1 1 1h16c0.552 0 1-0.448 1-1s-0.448-1-1-1zM24 8h-16c-0.552 0-1 0.448-1 1s0.448 1 1 1h16c0.552 0 1-0.448 1-1s-0.448-1-1-1z"></path>
</svg>

<svg id="icon-properties" width="32" height="32" viewBox="0 0 32 32" x="144" y="0">
<path fill="#9c9c9c" d="M9 10c-0.552 0-1 0.448-1 1v10c0 0.552 0.448 1 1 1s1-0.448 1-1v-10c0-0.552-0.448-1-1-1zM17 13c-0.552 0-1 0.448-1 1v6c0 0.552 0.448 1 1 1s1-0.448 1-1v-6c0-0.552-0.448-1-1-1zM24 17c0 0.552 0.448 1 1 1s1-0.448 1-1v-8c0-0.552-0.448-1-1-1s-1 0.448-1 1v8zM24 0l-8 6-8-3-8 5v24l8-5 8 3 8-6 8 6v-24l-8-6zM30 26.5l-6-4.5-8 6-8-3-6 3.75v-20l6-3.75 8 3 8-6 6 4.5v20z"></path>
</svg>
<svg id="icon-requests" width="32" height="32" viewBox="0 0 32 32" x="192" y="0">
<path fill="#9c9c9c" d="M21 17h-10c-0.552 0-1 0.448-1 1s0.448 1 1 1h10c0.552 0 1-0.448 1-1s-0.448-1-1-1zM23 11h-14c-0.552 0-1 0.448-1 1s0.448 1 1 1h14c0.552 0 1-0.448 1-1s-0.448-1-1-1zM16 0c-8.836 0-16 6.268-16 14 0 4.419 2.345 8.353 6 10.919v7.081l7.009-4.253c0.97 0.16 1.968 0.253 2.991 0.253 8.837 0 16-6.268 16-14s-7.163-14-16-14zM16 26c-1.168 0-2.296-0.136-3.38-0.367l-4.708 2.83 0.063-4.638c-3.609-2.171-5.975-5.759-5.975-9.825 0-6.627 6.268-12 14-12s14 5.373 14 12-6.268 12-14 12z"></path>
</svg>
<svg id="icon-support" width="32" height="32" viewBox="0 0 32 32" x="240" y="0">
<path fill="#9c9c9c" d="M24 0.945c-3.333 0-5.855 1.956-8 4-2.044-2.169-4.667-4-8-4-4.694 0-8 4.036-8 8.437 0 2.361 0.967 4.062 2.026 5.659l12.433 14.906c1.396 1.477 1.659 1.477 3.055 0l12.461-14.906c1.245-1.597 2.025-3.298 2.025-5.659 0-4.401-3.306-8.437-8-8.437zM28 14.627l-12 14.318-12-14.377c-1.435-1.995-2-3.341-2-5.186 0-3.438 2.455-6.533 6-6.562 2.916-0.024 6.221 2.954 8 5.199 1.732-2.167 5.084-5.199 8-5.199 3.451 0 6 3.124 6 6.562 0 1.845-0.447 3.291-2 5.245z"></path>
</svg>
<svg id="icon-tenants" width="32" height="32" viewBox="0 0 32 32" x="288" y="0">
<path fill="#9c9c9c" d="M17.951 16.352c1.28-1.727 2.049-3.94 2.049-6.352 0-5.523-4.029-10-9-10s-9 4.477-9 10c0 2.412 0.769 4.625 2.049 6.352-2.35 0.813-4.049 3.021-4.049 5.648v4c0 3.314 2.686 6 6 6h10c3.314 0 6-2.686 6-6v-4c0-2.627-1.699-4.835-4.049-5.648zM4 10c0-4.418 3.134-8 7-8s7 3.582 7 8-3.134 8-7 8-7-3.582-7-8zM20 25.5c0 2.485-2.198 4.5-4.909 4.5h-8.182c-2.711 0-4.909-2.015-4.909-4.5v-3c0-2.126 1.613-3.897 3.776-4.368 1.474 1.172 3.274 1.868 5.224 1.868s3.75-0.696 5.224-1.868c2.163 0.471 3.776 2.242 3.776 4.368v3zM23 8h8c0.552 0 1-0.448 1-1s-0.448-1-1-1h-8c-0.552 0-1 0.448-1 1s0.448 1 1 1zM31 12h-8c-0.552 0-1 0.448-1 1s0.448 1 1 1h8c0.552 0 1-0.448 1-1s-0.448-1-1-1zM31 18h-6c-0.552 0-1 0.448-1 1s0.448 1 1 1h6c0.552 0 1-0.448 1-1s-0.448-1-1-1zM31 24h-6c-0.552 0-1 0.448-1 1s0.448 1 1 1h6c0.552 0 1-0.448 1-1s-0.448-1-1-1z"></path>
</svg>
</svg>
